<mxfile host="app.diagrams.net" agent="Mozilla/5.0 (Macintosh; Intel Mac OS X 10_15_7) AppleWebKit/537.36 (KHTML, like Gecko) Chrome/138.0.0.0 Safari/537.36" version="28.0.9" pages="2">
  <diagram name="checkout journey" id="23xNrlUQlM-qZtU020cy">
    <mxGraphModel dx="1760" dy="1000" grid="1" gridSize="10" guides="1" tooltips="1" connect="1" arrows="1" fold="1" page="1" pageScale="1" pageWidth="850" pageHeight="1100" math="0" shadow="0">
      <root>
        <mxCell id="0" />
        <mxCell id="1" parent="0" />
        <mxCell id="z3mj2rHqbAHciCy6AM1l-1" value="Checkout flow" style="rounded=0;whiteSpace=wrap;html=1;" parent="1" vertex="1">
          <mxGeometry x="940" y="40" width="120" height="60" as="geometry" />
        </mxCell>
        <mxCell id="z3mj2rHqbAHciCy6AM1l-2" value="click on cart" style="strokeWidth=2;html=1;shape=mxgraph.flowchart.start_1;whiteSpace=wrap;" parent="1" vertex="1">
          <mxGeometry x="80" y="250" width="100" height="60" as="geometry" />
        </mxCell>
        <mxCell id="z3mj2rHqbAHciCy6AM1l-3" value="items in cart?" style="strokeWidth=2;html=1;shape=mxgraph.flowchart.decision;whiteSpace=wrap;" parent="1" vertex="1">
          <mxGeometry x="230" y="230" width="100" height="100" as="geometry" />
        </mxCell>
        <mxCell id="z3mj2rHqbAHciCy6AM1l-4" style="edgeStyle=orthogonalEdgeStyle;rounded=0;orthogonalLoop=1;jettySize=auto;html=1;exitX=1;exitY=0.5;exitDx=0;exitDy=0;exitPerimeter=0;entryX=0;entryY=0.5;entryDx=0;entryDy=0;entryPerimeter=0;" parent="1" source="z3mj2rHqbAHciCy6AM1l-2" target="z3mj2rHqbAHciCy6AM1l-3" edge="1">
          <mxGeometry relative="1" as="geometry" />
        </mxCell>
        <mxCell id="z3mj2rHqbAHciCy6AM1l-6" style="edgeStyle=orthogonalEdgeStyle;rounded=0;orthogonalLoop=1;jettySize=auto;html=1;exitX=1;exitY=0.5;exitDx=0;exitDy=0;exitPerimeter=0;entryX=0;entryY=0.5;entryDx=0;entryDy=0;" parent="1" source="z3mj2rHqbAHciCy6AM1l-3" target="z3mj2rHqbAHciCy6AM1l-7" edge="1">
          <mxGeometry relative="1" as="geometry">
            <mxPoint x="400" y="280" as="targetPoint" />
          </mxGeometry>
        </mxCell>
        <mxCell id="z3mj2rHqbAHciCy6AM1l-12" value="YES" style="edgeLabel;html=1;align=center;verticalAlign=middle;resizable=0;points=[];" parent="z3mj2rHqbAHciCy6AM1l-6" vertex="1" connectable="0">
          <mxGeometry x="-0.4182" y="-4" relative="1" as="geometry">
            <mxPoint x="10" y="-4" as="offset" />
          </mxGeometry>
        </mxCell>
        <mxCell id="z3mj2rHqbAHciCy6AM1l-10" style="edgeStyle=orthogonalEdgeStyle;rounded=0;orthogonalLoop=1;jettySize=auto;html=1;exitX=1;exitY=0.5;exitDx=0;exitDy=0;entryX=0;entryY=0.5;entryDx=0;entryDy=0;" parent="1" source="z3mj2rHqbAHciCy6AM1l-7" target="z3mj2rHqbAHciCy6AM1l-9" edge="1">
          <mxGeometry relative="1" as="geometry" />
        </mxCell>
        <mxCell id="z3mj2rHqbAHciCy6AM1l-7" value="click checkout button" style="rounded=1;whiteSpace=wrap;html=1;absoluteArcSize=1;arcSize=14;strokeWidth=2;" parent="1" vertex="1">
          <mxGeometry x="403" y="230" width="100" height="100" as="geometry" />
        </mxCell>
        <mxCell id="z3mj2rHqbAHciCy6AM1l-122" style="edgeStyle=orthogonalEdgeStyle;rounded=0;orthogonalLoop=1;jettySize=auto;html=1;exitX=1;exitY=0.5;exitDx=0;exitDy=0;exitPerimeter=0;entryX=0;entryY=0.5;entryDx=0;entryDy=0;" parent="1" source="z3mj2rHqbAHciCy6AM1l-9" target="z3mj2rHqbAHciCy6AM1l-11" edge="1">
          <mxGeometry relative="1" as="geometry" />
        </mxCell>
        <mxCell id="z3mj2rHqbAHciCy6AM1l-9" value="navigate to checkout screen" style="rounded=1;whiteSpace=wrap;html=1;absoluteArcSize=1;arcSize=14;strokeWidth=2;shape=mxgraph.flowchart.display;" parent="1" vertex="1">
          <mxGeometry x="550" y="230" width="100" height="100" as="geometry" />
        </mxCell>
        <mxCell id="z3mj2rHqbAHciCy6AM1l-11" value="review order items" style="rounded=1;whiteSpace=wrap;html=1;absoluteArcSize=1;arcSize=14;strokeWidth=2;" parent="1" vertex="1">
          <mxGeometry x="700" y="230" width="100" height="100" as="geometry" />
        </mxCell>
        <mxCell id="z3mj2rHqbAHciCy6AM1l-18" value="review store location" style="rounded=1;whiteSpace=wrap;html=1;absoluteArcSize=1;arcSize=14;strokeWidth=2;" parent="1" vertex="1">
          <mxGeometry x="1035" y="230" width="100" height="100" as="geometry" />
        </mxCell>
        <mxCell id="z3mj2rHqbAHciCy6AM1l-137" style="edgeStyle=orthogonalEdgeStyle;rounded=0;orthogonalLoop=1;jettySize=auto;html=1;exitX=1;exitY=0.5;exitDx=0;exitDy=0;exitPerimeter=0;entryX=0;entryY=0.5;entryDx=0;entryDy=0;" parent="1" source="z3mj2rHqbAHciCy6AM1l-20" target="z3mj2rHqbAHciCy6AM1l-18" edge="1">
          <mxGeometry relative="1" as="geometry" />
        </mxCell>
        <mxCell id="z3mj2rHqbAHciCy6AM1l-138" value="YES" style="edgeLabel;html=1;align=center;verticalAlign=middle;resizable=0;points=[];" parent="z3mj2rHqbAHciCy6AM1l-137" vertex="1" connectable="0">
          <mxGeometry x="-0.4933" relative="1" as="geometry">
            <mxPoint x="4" as="offset" />
          </mxGeometry>
        </mxCell>
        <mxCell id="z3mj2rHqbAHciCy6AM1l-20" value="items valid?" style="strokeWidth=2;html=1;shape=mxgraph.flowchart.decision;whiteSpace=wrap;" parent="1" vertex="1">
          <mxGeometry x="860" y="230" width="100" height="100" as="geometry" />
        </mxCell>
        <mxCell id="AG5AZqVwPZlhjpRsGjMY-1" value="" style="edgeStyle=orthogonalEdgeStyle;rounded=0;orthogonalLoop=1;jettySize=auto;html=1;" edge="1" parent="1" source="z3mj2rHqbAHciCy6AM1l-25" target="z3mj2rHqbAHciCy6AM1l-18">
          <mxGeometry relative="1" as="geometry" />
        </mxCell>
        <mxCell id="z3mj2rHqbAHciCy6AM1l-25" value="change store" style="rounded=1;whiteSpace=wrap;html=1;absoluteArcSize=1;arcSize=14;strokeWidth=2;" parent="1" vertex="1">
          <mxGeometry x="1035" y="379.5" width="100" height="100" as="geometry" />
        </mxCell>
        <mxCell id="z3mj2rHqbAHciCy6AM1l-39" style="edgeStyle=orthogonalEdgeStyle;rounded=0;orthogonalLoop=1;jettySize=auto;html=1;exitX=1;exitY=0.5;exitDx=0;exitDy=0;exitPerimeter=0;entryX=0;entryY=0.5;entryDx=0;entryDy=0;" parent="1" source="z3mj2rHqbAHciCy6AM1l-37" target="z3mj2rHqbAHciCy6AM1l-44" edge="1">
          <mxGeometry relative="1" as="geometry">
            <mxPoint x="1218" y="280" as="targetPoint" />
          </mxGeometry>
        </mxCell>
        <mxCell id="z3mj2rHqbAHciCy6AM1l-40" value="YES" style="edgeLabel;html=1;align=center;verticalAlign=middle;resizable=0;points=[];" parent="z3mj2rHqbAHciCy6AM1l-39" vertex="1" connectable="0">
          <mxGeometry x="-0.8148" y="-2" relative="1" as="geometry">
            <mxPoint x="24" y="-2" as="offset" />
          </mxGeometry>
        </mxCell>
        <mxCell id="z3mj2rHqbAHciCy6AM1l-82" style="edgeStyle=orthogonalEdgeStyle;rounded=0;orthogonalLoop=1;jettySize=auto;html=1;exitX=0.5;exitY=1;exitDx=0;exitDy=0;exitPerimeter=0;entryX=1;entryY=0.5;entryDx=0;entryDy=0;" parent="1" source="z3mj2rHqbAHciCy6AM1l-37" target="z3mj2rHqbAHciCy6AM1l-25" edge="1">
          <mxGeometry relative="1" as="geometry" />
        </mxCell>
        <mxCell id="z3mj2rHqbAHciCy6AM1l-83" value="NO" style="edgeLabel;html=1;align=center;verticalAlign=middle;resizable=0;points=[];" parent="z3mj2rHqbAHciCy6AM1l-82" vertex="1" connectable="0">
          <mxGeometry x="-0.2444" relative="1" as="geometry">
            <mxPoint y="-61" as="offset" />
          </mxGeometry>
        </mxCell>
        <mxCell id="z3mj2rHqbAHciCy6AM1l-37" value="store valid?" style="strokeWidth=2;html=1;shape=mxgraph.flowchart.decision;whiteSpace=wrap;" parent="1" vertex="1">
          <mxGeometry x="1200" y="230" width="100" height="100" as="geometry" />
        </mxCell>
        <mxCell id="z3mj2rHqbAHciCy6AM1l-38" style="edgeStyle=orthogonalEdgeStyle;rounded=0;orthogonalLoop=1;jettySize=auto;html=1;exitX=1;exitY=0.5;exitDx=0;exitDy=0;entryX=0;entryY=0.5;entryDx=0;entryDy=0;entryPerimeter=0;" parent="1" source="z3mj2rHqbAHciCy6AM1l-18" target="z3mj2rHqbAHciCy6AM1l-37" edge="1">
          <mxGeometry relative="1" as="geometry" />
        </mxCell>
        <mxCell id="AG5AZqVwPZlhjpRsGjMY-3" value="" style="edgeStyle=orthogonalEdgeStyle;rounded=0;orthogonalLoop=1;jettySize=auto;html=1;" edge="1" parent="1" source="z3mj2rHqbAHciCy6AM1l-44" target="z3mj2rHqbAHciCy6AM1l-45">
          <mxGeometry relative="1" as="geometry" />
        </mxCell>
        <mxCell id="z3mj2rHqbAHciCy6AM1l-44" value="select available pickup time" style="rounded=1;whiteSpace=wrap;html=1;absoluteArcSize=1;arcSize=14;strokeWidth=2;" parent="1" vertex="1">
          <mxGeometry x="1370" y="230" width="100" height="100" as="geometry" />
        </mxCell>
        <mxCell id="z3mj2rHqbAHciCy6AM1l-141" style="edgeStyle=orthogonalEdgeStyle;rounded=0;orthogonalLoop=1;jettySize=auto;html=1;exitX=0.5;exitY=1;exitDx=0;exitDy=0;exitPerimeter=0;entryX=0.5;entryY=0;entryDx=0;entryDy=0;entryPerimeter=0;" parent="1" source="z3mj2rHqbAHciCy6AM1l-45" target="AG5AZqVwPZlhjpRsGjMY-4" edge="1">
          <mxGeometry relative="1" as="geometry">
            <mxPoint x="1580" y="432" as="targetPoint" />
          </mxGeometry>
        </mxCell>
        <mxCell id="z3mj2rHqbAHciCy6AM1l-142" value="NO" style="edgeLabel;html=1;align=center;verticalAlign=middle;resizable=0;points=[];" parent="z3mj2rHqbAHciCy6AM1l-141" vertex="1" connectable="0">
          <mxGeometry x="-0.2444" y="1" relative="1" as="geometry">
            <mxPoint as="offset" />
          </mxGeometry>
        </mxCell>
        <mxCell id="z3mj2rHqbAHciCy6AM1l-45" value="desirable time available?" style="strokeWidth=2;html=1;shape=mxgraph.flowchart.decision;whiteSpace=wrap;" parent="1" vertex="1">
          <mxGeometry x="1530" y="230" width="100" height="100" as="geometry" />
        </mxCell>
        <mxCell id="z3mj2rHqbAHciCy6AM1l-60" style="edgeStyle=orthogonalEdgeStyle;rounded=0;orthogonalLoop=1;jettySize=auto;html=1;exitX=1;exitY=0.5;exitDx=0;exitDy=0;exitPerimeter=0;entryX=0;entryY=0.5;entryDx=0;entryDy=0;" parent="1" source="z3mj2rHqbAHciCy6AM1l-52" target="z3mj2rHqbAHciCy6AM1l-70" edge="1">
          <mxGeometry relative="1" as="geometry">
            <mxPoint x="1831" y="192.5" as="targetPoint" />
          </mxGeometry>
        </mxCell>
        <mxCell id="z3mj2rHqbAHciCy6AM1l-64" value="YES" style="edgeLabel;html=1;align=center;verticalAlign=middle;resizable=0;points=[];" parent="z3mj2rHqbAHciCy6AM1l-60" vertex="1" connectable="0">
          <mxGeometry x="-0.7423" relative="1" as="geometry">
            <mxPoint x="12" as="offset" />
          </mxGeometry>
        </mxCell>
        <mxCell id="z3mj2rHqbAHciCy6AM1l-52" value="payment info saved?" style="strokeWidth=2;html=1;shape=mxgraph.flowchart.decision;whiteSpace=wrap;" parent="1" vertex="1">
          <mxGeometry x="1690" y="229.5" width="100" height="100" as="geometry" />
        </mxCell>
        <mxCell id="z3mj2rHqbAHciCy6AM1l-63" style="edgeStyle=orthogonalEdgeStyle;rounded=0;orthogonalLoop=1;jettySize=auto;html=1;exitX=0.5;exitY=1;exitDx=0;exitDy=0;exitPerimeter=0;entryX=0.5;entryY=0;entryDx=0;entryDy=0;" parent="1" source="z3mj2rHqbAHciCy6AM1l-52" target="z3mj2rHqbAHciCy6AM1l-66" edge="1">
          <mxGeometry relative="1" as="geometry">
            <mxPoint x="1831" y="367.5" as="targetPoint" />
          </mxGeometry>
        </mxCell>
        <mxCell id="z3mj2rHqbAHciCy6AM1l-65" value="NO" style="edgeLabel;html=1;align=center;verticalAlign=middle;resizable=0;points=[];" parent="z3mj2rHqbAHciCy6AM1l-63" vertex="1" connectable="0">
          <mxGeometry x="-0.7385" y="1" relative="1" as="geometry">
            <mxPoint x="-1" y="14" as="offset" />
          </mxGeometry>
        </mxCell>
        <mxCell id="z3mj2rHqbAHciCy6AM1l-74" style="edgeStyle=orthogonalEdgeStyle;rounded=0;orthogonalLoop=1;jettySize=auto;html=1;exitX=1;exitY=0.5;exitDx=0;exitDy=0;entryX=0.5;entryY=1;entryDx=0;entryDy=0;" parent="1" source="z3mj2rHqbAHciCy6AM1l-66" target="z3mj2rHqbAHciCy6AM1l-70" edge="1">
          <mxGeometry relative="1" as="geometry" />
        </mxCell>
        <mxCell id="z3mj2rHqbAHciCy6AM1l-66" value="enter other payment info" style="rounded=1;whiteSpace=wrap;html=1;absoluteArcSize=1;arcSize=14;strokeWidth=2;" parent="1" vertex="1">
          <mxGeometry x="1690" y="380" width="100" height="100" as="geometry" />
        </mxCell>
        <mxCell id="z3mj2rHqbAHciCy6AM1l-76" style="edgeStyle=orthogonalEdgeStyle;rounded=0;orthogonalLoop=1;jettySize=auto;html=1;exitX=1;exitY=0.5;exitDx=0;exitDy=0;" parent="1" source="z3mj2rHqbAHciCy6AM1l-68" target="z3mj2rHqbAHciCy6AM1l-75" edge="1">
          <mxGeometry relative="1" as="geometry" />
        </mxCell>
        <mxCell id="z3mj2rHqbAHciCy6AM1l-68" value="review payment info" style="rounded=1;whiteSpace=wrap;html=1;absoluteArcSize=1;arcSize=14;strokeWidth=2;" parent="1" vertex="1">
          <mxGeometry x="2010" y="229.5" width="100" height="100" as="geometry" />
        </mxCell>
        <mxCell id="z3mj2rHqbAHciCy6AM1l-73" style="edgeStyle=orthogonalEdgeStyle;rounded=0;orthogonalLoop=1;jettySize=auto;html=1;exitX=1;exitY=0.5;exitDx=0;exitDy=0;entryX=0;entryY=0.5;entryDx=0;entryDy=0;" parent="1" source="z3mj2rHqbAHciCy6AM1l-70" target="z3mj2rHqbAHciCy6AM1l-68" edge="1">
          <mxGeometry relative="1" as="geometry" />
        </mxCell>
        <mxCell id="z3mj2rHqbAHciCy6AM1l-70" value="enter expiration date &amp;amp; CVV" style="rounded=1;whiteSpace=wrap;html=1;absoluteArcSize=1;arcSize=14;strokeWidth=2;" parent="1" vertex="1">
          <mxGeometry x="1850" y="230" width="100" height="100" as="geometry" />
        </mxCell>
        <mxCell id="z3mj2rHqbAHciCy6AM1l-75" value="click order button" style="strokeWidth=2;html=1;shape=mxgraph.flowchart.terminator;whiteSpace=wrap;" parent="1" vertex="1">
          <mxGeometry x="2176" y="249.5" width="100" height="60" as="geometry" />
        </mxCell>
        <mxCell id="z3mj2rHqbAHciCy6AM1l-129" style="edgeStyle=orthogonalEdgeStyle;rounded=0;orthogonalLoop=1;jettySize=auto;html=1;exitX=0;exitY=0.5;exitDx=0;exitDy=0;entryX=0;entryY=0.75;entryDx=0;entryDy=0;" parent="1" source="z3mj2rHqbAHciCy6AM1l-90" target="z3mj2rHqbAHciCy6AM1l-11" edge="1">
          <mxGeometry relative="1" as="geometry" />
        </mxCell>
        <mxCell id="z3mj2rHqbAHciCy6AM1l-90" value="update quantity on page" style="rounded=1;whiteSpace=wrap;html=1;absoluteArcSize=1;arcSize=14;strokeWidth=2;" parent="1" vertex="1">
          <mxGeometry x="700" y="380" width="100" height="100" as="geometry" />
        </mxCell>
        <mxCell id="z3mj2rHqbAHciCy6AM1l-133" value="" style="edgeStyle=orthogonalEdgeStyle;rounded=0;orthogonalLoop=1;jettySize=auto;html=1;" parent="1" source="z3mj2rHqbAHciCy6AM1l-93" target="z3mj2rHqbAHciCy6AM1l-132" edge="1">
          <mxGeometry relative="1" as="geometry" />
        </mxCell>
        <mxCell id="z3mj2rHqbAHciCy6AM1l-93" value="search for items to add" style="rounded=1;whiteSpace=wrap;html=1;absoluteArcSize=1;arcSize=14;strokeWidth=2;" parent="1" vertex="1">
          <mxGeometry x="700" y="620" width="100" height="100" as="geometry" />
        </mxCell>
        <mxCell id="z3mj2rHqbAHciCy6AM1l-125" style="edgeStyle=orthogonalEdgeStyle;rounded=0;orthogonalLoop=1;jettySize=auto;html=1;exitX=0;exitY=0.5;exitDx=0;exitDy=0;exitPerimeter=0;entryX=1;entryY=0.5;entryDx=0;entryDy=0;" parent="1" source="z3mj2rHqbAHciCy6AM1l-107" target="z3mj2rHqbAHciCy6AM1l-90" edge="1">
          <mxGeometry relative="1" as="geometry" />
        </mxCell>
        <mxCell id="z3mj2rHqbAHciCy6AM1l-126" style="edgeStyle=orthogonalEdgeStyle;rounded=0;orthogonalLoop=1;jettySize=auto;html=1;exitX=0;exitY=0.5;exitDx=0;exitDy=0;exitPerimeter=0;entryX=1;entryY=0.5;entryDx=0;entryDy=0;" parent="1" source="z3mj2rHqbAHciCy6AM1l-107" target="z3mj2rHqbAHciCy6AM1l-113" edge="1">
          <mxGeometry relative="1" as="geometry" />
        </mxCell>
        <mxCell id="z3mj2rHqbAHciCy6AM1l-127" style="edgeStyle=orthogonalEdgeStyle;rounded=0;orthogonalLoop=1;jettySize=auto;html=1;exitX=0;exitY=0.5;exitDx=0;exitDy=0;exitPerimeter=0;entryX=1;entryY=0.5;entryDx=0;entryDy=0;" parent="1" source="z3mj2rHqbAHciCy6AM1l-107" target="z3mj2rHqbAHciCy6AM1l-93" edge="1">
          <mxGeometry relative="1" as="geometry" />
        </mxCell>
        <mxCell id="z3mj2rHqbAHciCy6AM1l-107" value="" style="verticalLabelPosition=bottom;verticalAlign=top;html=1;shape=mxgraph.flowchart.summing_function;" parent="1" vertex="1">
          <mxGeometry x="892.5" y="532" width="35" height="35" as="geometry" />
        </mxCell>
        <mxCell id="z3mj2rHqbAHciCy6AM1l-130" style="edgeStyle=orthogonalEdgeStyle;rounded=0;orthogonalLoop=1;jettySize=auto;html=1;exitX=0;exitY=0.5;exitDx=0;exitDy=0;entryX=0;entryY=0.75;entryDx=0;entryDy=0;" parent="1" source="z3mj2rHqbAHciCy6AM1l-113" target="z3mj2rHqbAHciCy6AM1l-11" edge="1">
          <mxGeometry relative="1" as="geometry">
            <mxPoint x="620" y="410" as="targetPoint" />
          </mxGeometry>
        </mxCell>
        <mxCell id="z3mj2rHqbAHciCy6AM1l-113" value="remove item on page" style="rounded=1;whiteSpace=wrap;html=1;absoluteArcSize=1;arcSize=14;strokeWidth=2;" parent="1" vertex="1">
          <mxGeometry x="700" y="500" width="100" height="100" as="geometry" />
        </mxCell>
        <mxCell id="z3mj2rHqbAHciCy6AM1l-118" style="edgeStyle=orthogonalEdgeStyle;rounded=0;orthogonalLoop=1;jettySize=auto;html=1;exitX=0;exitY=0.5;exitDx=0;exitDy=0;entryX=0;entryY=0.5;entryDx=0;entryDy=0;entryPerimeter=0;" parent="1" source="z3mj2rHqbAHciCy6AM1l-132" target="z3mj2rHqbAHciCy6AM1l-2" edge="1">
          <mxGeometry relative="1" as="geometry" />
        </mxCell>
        <mxCell id="z3mj2rHqbAHciCy6AM1l-123" style="edgeStyle=orthogonalEdgeStyle;rounded=0;orthogonalLoop=1;jettySize=auto;html=1;exitX=1;exitY=0.5;exitDx=0;exitDy=0;entryX=0;entryY=0.5;entryDx=0;entryDy=0;entryPerimeter=0;" parent="1" source="z3mj2rHqbAHciCy6AM1l-11" target="z3mj2rHqbAHciCy6AM1l-20" edge="1">
          <mxGeometry relative="1" as="geometry" />
        </mxCell>
        <mxCell id="z3mj2rHqbAHciCy6AM1l-124" style="edgeStyle=orthogonalEdgeStyle;rounded=0;orthogonalLoop=1;jettySize=auto;html=1;exitX=0.5;exitY=1;exitDx=0;exitDy=0;exitPerimeter=0;entryX=0.5;entryY=0;entryDx=0;entryDy=0;entryPerimeter=0;" parent="1" source="z3mj2rHqbAHciCy6AM1l-20" target="z3mj2rHqbAHciCy6AM1l-107" edge="1">
          <mxGeometry relative="1" as="geometry" />
        </mxCell>
        <mxCell id="z3mj2rHqbAHciCy6AM1l-131" value="NO" style="edgeLabel;html=1;align=center;verticalAlign=middle;resizable=0;points=[];" parent="z3mj2rHqbAHciCy6AM1l-124" vertex="1" connectable="0">
          <mxGeometry x="-0.7855" y="1" relative="1" as="geometry">
            <mxPoint x="-1" as="offset" />
          </mxGeometry>
        </mxCell>
        <mxCell id="z3mj2rHqbAHciCy6AM1l-132" value="browse catalog for items" style="rounded=1;whiteSpace=wrap;html=1;absoluteArcSize=1;arcSize=14;strokeWidth=2;" parent="1" vertex="1">
          <mxGeometry x="230" y="620" width="100" height="100" as="geometry" />
        </mxCell>
        <mxCell id="z3mj2rHqbAHciCy6AM1l-135" style="edgeStyle=orthogonalEdgeStyle;rounded=0;orthogonalLoop=1;jettySize=auto;html=1;exitX=0.5;exitY=1;exitDx=0;exitDy=0;exitPerimeter=0;entryX=0.5;entryY=0;entryDx=0;entryDy=0;" parent="1" source="z3mj2rHqbAHciCy6AM1l-3" target="z3mj2rHqbAHciCy6AM1l-132" edge="1">
          <mxGeometry relative="1" as="geometry">
            <mxPoint x="280" y="400" as="targetPoint" />
          </mxGeometry>
        </mxCell>
        <mxCell id="z3mj2rHqbAHciCy6AM1l-136" value="NO" style="edgeLabel;html=1;align=center;verticalAlign=middle;resizable=0;points=[];" parent="z3mj2rHqbAHciCy6AM1l-135" vertex="1" connectable="0">
          <mxGeometry x="-0.419" relative="1" as="geometry">
            <mxPoint y="-64" as="offset" />
          </mxGeometry>
        </mxCell>
        <mxCell id="z3mj2rHqbAHciCy6AM1l-139" style="edgeStyle=orthogonalEdgeStyle;rounded=0;orthogonalLoop=1;jettySize=auto;html=1;exitX=1;exitY=0.5;exitDx=0;exitDy=0;exitPerimeter=0;entryX=0;entryY=0.5;entryDx=0;entryDy=0;entryPerimeter=0;" parent="1" source="z3mj2rHqbAHciCy6AM1l-45" target="z3mj2rHqbAHciCy6AM1l-52" edge="1">
          <mxGeometry relative="1" as="geometry" />
        </mxCell>
        <mxCell id="z3mj2rHqbAHciCy6AM1l-140" value="YES" style="edgeLabel;html=1;align=center;verticalAlign=middle;resizable=0;points=[];" parent="z3mj2rHqbAHciCy6AM1l-139" vertex="1" connectable="0">
          <mxGeometry x="-0.4611" y="-3" relative="1" as="geometry">
            <mxPoint x="14" y="-3" as="offset" />
          </mxGeometry>
        </mxCell>
        <mxCell id="AG5AZqVwPZlhjpRsGjMY-4" value="abandon checkout" style="strokeWidth=2;html=1;shape=mxgraph.flowchart.terminator;whiteSpace=wrap;" vertex="1" parent="1">
          <mxGeometry x="1530" y="399.5" width="100" height="60" as="geometry" />
        </mxCell>
        <mxCell id="AG5AZqVwPZlhjpRsGjMY-5" value="TODO: inventory must be recalculated if changing stores" style="text;html=1;align=center;verticalAlign=middle;whiteSpace=wrap;rounded=0;" vertex="1" parent="1">
          <mxGeometry x="1190" y="440" width="210" height="70" as="geometry" />
        </mxCell>
      </root>
    </mxGraphModel>
  </diagram>
  <diagram id="JbqUlM9Vkk_Koo6TxZ9B" name="Page-2">
    <mxGraphModel dx="1193" dy="794" grid="1" gridSize="10" guides="1" tooltips="1" connect="1" arrows="1" fold="1" page="1" pageScale="1" pageWidth="850" pageHeight="1100" math="0" shadow="0">
      <root>
        <mxCell id="0" />
        <mxCell id="1" parent="0" />
      </root>
    </mxGraphModel>
  </diagram>
</mxfile>
